<svg width="515" height="603" viewBox="0 0 515 603" fill="none" xmlns="http://www.w3.org/2000/svg">
<rect width="515" height="603" fill="white"/>
<rect x="22" y="48" width="471" height="191" rx="19" stroke="black" stroke-width="2" stroke-linejoin="round" stroke-dasharray="4 4"/>
<path d="M87.196 126.238V139H91.912C94.288 139 95.872 137.524 95.872 135.472C95.872 133.96 94.936 132.79 93.586 132.43C94.684 132.034 95.476 131.026 95.476 129.676C95.476 127.678 94.036 126.238 91.588 126.238H87.196ZM89.338 131.638V128.074H91.246C92.56 128.074 93.316 128.776 93.316 129.856C93.316 130.918 92.56 131.638 91.3 131.638H89.338ZM89.338 137.164V133.456H91.606C92.938 133.456 93.676 134.23 93.676 135.328C93.676 136.462 92.83 137.164 91.534 137.164H89.338ZM100.038 139V125.968H97.9496V139H100.038ZM106.583 137.398C105.305 137.398 104.135 136.426 104.135 134.608C104.135 132.79 105.305 131.854 106.583 131.854C107.879 131.854 109.031 132.79 109.031 134.608C109.031 136.444 107.879 137.398 106.583 137.398ZM106.583 129.964C103.973 129.964 102.047 131.926 102.047 134.608C102.047 137.308 103.973 139.27 106.583 139.27C109.211 139.27 111.137 137.308 111.137 134.608C111.137 131.926 109.211 129.964 106.583 129.964ZM116.971 131.89C118.303 131.89 118.897 132.754 119.095 133.528L120.967 132.844C120.607 131.44 119.311 129.964 116.953 129.964C114.433 129.964 112.471 131.908 112.471 134.608C112.471 137.272 114.433 139.27 117.007 139.27C119.311 139.27 120.625 137.776 121.039 136.408L119.203 135.742C119.005 136.408 118.375 137.362 117.007 137.362C115.693 137.362 114.559 136.372 114.559 134.608C114.559 132.844 115.693 131.89 116.971 131.89ZM131.101 130.234H128.329L124.963 133.78V125.968H122.893V139H124.963V136.552L126.043 135.418L128.617 139H131.173L127.501 133.942L131.101 130.234ZM88.7496 155.106V151.146H90.9996C92.3676 151.146 93.1956 151.92 93.1956 153.144C93.1956 154.35 92.3676 155.106 90.9996 155.106H88.7496ZM91.3236 157.014C93.7716 157.014 95.3916 155.376 95.3916 153.126C95.3916 150.894 93.7716 149.238 91.3236 149.238H86.5896V162H88.7496V157.014H91.3236ZM100.457 160.398C99.1789 160.398 98.0089 159.426 98.0089 157.608C98.0089 155.79 99.1789 154.854 100.457 154.854C101.753 154.854 102.905 155.79 102.905 157.608C102.905 159.444 101.753 160.398 100.457 160.398ZM100.457 152.964C97.8469 152.964 95.9209 154.926 95.9209 157.608C95.9209 160.308 97.8469 162.27 100.457 162.27C103.085 162.27 105.011 160.308 105.011 157.608C105.011 154.926 103.085 152.964 100.457 152.964ZM109.117 162V148.968H107.029V162H109.117ZM113.898 162V148.968H111.81V162H113.898ZM118.049 156.654C118.121 155.718 118.877 154.71 120.191 154.71C121.631 154.71 122.315 155.628 122.351 156.654H118.049ZM122.585 158.94C122.297 159.804 121.649 160.47 120.389 160.47C119.093 160.47 118.049 159.516 117.995 158.184H124.403C124.421 158.148 124.457 157.86 124.457 157.518C124.457 154.746 122.873 152.964 120.173 152.964C117.959 152.964 115.907 154.8 115.907 157.572C115.907 160.542 118.013 162.27 120.389 162.27C122.495 162.27 123.881 161.028 124.349 159.498L122.585 158.94ZM131.583 153.18C131.493 153.162 131.277 153.126 131.025 153.126C129.873 153.126 128.901 153.684 128.487 154.638V153.234H126.453V162H128.541V157.824C128.541 156.186 129.279 155.25 130.899 155.25C131.115 155.25 131.349 155.268 131.583 155.304V153.18Z" fill="black"/>
<rect x="47" y="68" width="123" height="151" rx="19" stroke="black" stroke-width="2"/>
<path d="M327.675 95.238V108H332.391C334.767 108 336.351 106.524 336.351 104.472C336.351 102.96 335.415 101.79 334.065 101.43C335.163 101.034 335.955 100.026 335.955 98.676C335.955 96.678 334.515 95.238 332.067 95.238H327.675ZM329.817 100.638V97.074H331.725C333.039 97.074 333.795 97.776 333.795 98.856C333.795 99.918 333.039 100.638 331.779 100.638H329.817ZM329.817 106.164V102.456H332.085C333.417 102.456 334.155 103.23 334.155 104.328C334.155 105.462 333.309 106.164 332.013 106.164H329.817ZM340.516 108V94.968H338.428V108H340.516ZM347.061 106.398C345.783 106.398 344.613 105.426 344.613 103.608C344.613 101.79 345.783 100.854 347.061 100.854C348.357 100.854 349.509 101.79 349.509 103.608C349.509 105.444 348.357 106.398 347.061 106.398ZM347.061 98.964C344.451 98.964 342.525 100.926 342.525 103.608C342.525 106.308 344.451 108.27 347.061 108.27C349.689 108.27 351.615 106.308 351.615 103.608C351.615 100.926 349.689 98.964 347.061 98.964ZM357.449 100.89C358.781 100.89 359.375 101.754 359.573 102.528L361.445 101.844C361.085 100.44 359.789 98.964 357.431 98.964C354.911 98.964 352.949 100.908 352.949 103.608C352.949 106.272 354.911 108.27 357.485 108.27C359.789 108.27 361.103 106.776 361.517 105.408L359.681 104.742C359.483 105.408 358.853 106.362 357.485 106.362C356.171 106.362 355.037 105.372 355.037 103.608C355.037 101.844 356.171 100.89 357.449 100.89ZM371.579 99.234H368.807L365.441 102.78V94.968H363.371V108H365.441V105.552L366.521 104.418L369.095 108H371.651L367.979 102.942L371.579 99.234ZM379.967 108V102.852H385.151V100.854H379.967V97.272H385.745V95.238H377.807V108H379.967ZM388.507 102.654C388.579 101.718 389.335 100.71 390.649 100.71C392.089 100.71 392.773 101.628 392.809 102.654H388.507ZM393.043 104.94C392.755 105.804 392.107 106.47 390.847 106.47C389.551 106.47 388.507 105.516 388.453 104.184H394.861C394.879 104.148 394.915 103.86 394.915 103.518C394.915 100.746 393.331 98.964 390.631 98.964C388.417 98.964 386.365 100.8 386.365 103.572C386.365 106.542 388.471 108.27 390.847 108.27C392.953 108.27 394.339 107.028 394.807 105.498L393.043 104.94ZM399.557 96.552H397.667V97.866C397.667 98.64 397.253 99.234 396.317 99.234H395.867V101.088H397.487V105.498C397.487 107.136 398.495 108.108 400.115 108.108C400.871 108.108 401.267 107.964 401.393 107.91V106.182C401.303 106.2 400.961 106.254 400.673 106.254C399.899 106.254 399.557 105.93 399.557 105.156V101.088H401.375V99.234H399.557V96.552ZM407.248 100.89C408.58 100.89 409.174 101.754 409.372 102.528L411.244 101.844C410.884 100.44 409.588 98.964 407.23 98.964C404.71 98.964 402.748 100.908 402.748 103.608C402.748 106.272 404.71 108.27 407.284 108.27C409.588 108.27 410.902 106.776 411.316 105.408L409.48 104.742C409.282 105.408 408.652 106.362 407.284 106.362C405.97 106.362 404.836 105.372 404.836 103.608C404.836 101.844 405.97 100.89 407.248 100.89ZM415.258 102.852C415.294 101.736 415.924 100.872 417.076 100.872C418.39 100.872 418.876 101.736 418.876 102.816V108H420.964V102.456C420.964 100.53 419.92 98.982 417.76 98.982C416.842 98.982 415.852 99.306 415.258 100.08V94.968H413.17V108H415.258V102.852ZM424.964 102.654C425.036 101.718 425.792 100.71 427.106 100.71C428.546 100.71 429.23 101.628 429.266 102.654H424.964ZM429.5 104.94C429.212 105.804 428.564 106.47 427.304 106.47C426.008 106.47 424.964 105.516 424.91 104.184H431.318C431.336 104.148 431.372 103.86 431.372 103.518C431.372 100.746 429.788 98.964 427.088 98.964C424.874 98.964 422.822 100.8 422.822 103.572C422.822 106.542 424.928 108.27 427.304 108.27C429.41 108.27 430.796 107.028 431.264 105.498L429.5 104.94ZM438.498 99.18C438.408 99.162 438.192 99.126 437.94 99.126C436.788 99.126 435.816 99.684 435.402 100.638V99.234H433.368V108H435.456V103.824C435.456 102.186 436.194 101.25 437.814 101.25C438.03 101.25 438.264 101.268 438.498 101.304V99.18Z" fill="black"/>
<rect x="291.75" y="67.75" width="181.5" height="68.5" rx="19.25" stroke="black" stroke-width="1.5"/>
<path d="M316.057 173.32C316.057 172.72 315.652 172.315 315.052 172.315C314.902 172.315 314.782 172.375 314.752 172.39C314.782 171.745 315.322 171.16 315.922 171.055V170.23C315.037 170.32 313.762 171.07 313.762 172.945C313.762 173.77 314.272 174.31 314.962 174.31C315.592 174.31 316.057 173.86 316.057 173.32ZM313.282 173.32C313.282 172.72 312.862 172.315 312.277 172.315C312.127 172.315 311.992 172.375 311.962 172.39C311.992 171.745 312.532 171.16 313.147 171.055V170.23C312.247 170.32 310.987 171.07 310.987 172.945C310.987 173.77 311.482 174.31 312.187 174.31C312.817 174.31 313.282 173.86 313.282 173.32ZM324.563 181V179.29H319.688V170.365H317.888V181H324.563ZM325.653 179.02C325.653 180.175 326.598 181.225 328.128 181.225C329.313 181.225 330.033 180.625 330.378 180.07C330.378 180.655 330.438 180.955 330.453 181H332.073C332.058 180.925 331.983 180.49 331.983 179.83V176.2C331.983 174.745 331.128 173.47 328.878 173.47C327.078 173.47 325.938 174.595 325.803 175.855L327.393 176.215C327.468 175.48 327.978 174.895 328.893 174.895C329.853 174.895 330.273 175.39 330.273 176.005C330.273 176.26 330.153 176.47 329.733 176.53L327.858 176.815C326.613 176.995 325.653 177.715 325.653 179.02ZM328.458 179.86C327.768 179.86 327.393 179.41 327.393 178.915C327.393 178.315 327.828 178.015 328.368 177.925L330.273 177.64V177.97C330.273 179.395 329.433 179.86 328.458 179.86ZM333.441 179.02C333.531 179.845 334.341 181.225 336.456 181.225C338.316 181.225 339.216 179.995 339.216 178.885C339.216 177.805 338.496 176.965 337.116 176.665L336.006 176.44C335.556 176.35 335.271 176.065 335.271 175.675C335.271 175.225 335.706 174.835 336.321 174.835C337.296 174.835 337.611 175.51 337.671 175.93L339.141 175.51C339.021 174.79 338.361 173.47 336.321 173.47C334.806 173.47 333.636 174.55 333.636 175.825C333.636 176.83 334.311 177.67 335.601 177.955L336.681 178.195C337.266 178.315 337.536 178.615 337.536 179.005C337.536 179.455 337.161 179.845 336.441 179.845C335.511 179.845 335.016 179.26 334.956 178.6L333.441 179.02ZM343.146 171.46H341.571V172.555C341.571 173.2 341.226 173.695 340.446 173.695H340.071V175.24H341.421V178.915C341.421 180.28 342.261 181.09 343.611 181.09C344.241 181.09 344.571 180.97 344.676 180.925V179.485C344.601 179.5 344.316 179.545 344.076 179.545C343.431 179.545 343.146 179.275 343.146 178.63V175.24H344.661V173.695H343.146V171.46ZM357.281 172.855C357.041 171.67 356.066 170.14 353.561 170.14C351.581 170.14 349.946 171.61 349.946 173.395C349.946 174.985 351.026 176.05 352.646 176.38L354.146 176.695C355.061 176.89 355.571 177.445 355.571 178.135C355.571 178.96 354.911 179.605 353.636 179.605C352.106 179.605 351.311 178.585 351.206 177.475L349.526 177.955C349.691 179.485 350.936 181.225 353.636 181.225C356.066 181.225 357.401 179.65 357.401 178C357.401 176.5 356.396 175.315 354.521 174.94L352.991 174.625C352.166 174.445 351.746 173.935 351.746 173.26C351.746 172.45 352.496 171.73 353.576 171.73C355.001 171.73 355.556 172.705 355.661 173.365L357.281 172.855ZM360.989 183.955L365.639 173.695H363.794L361.829 178.315L359.729 173.695H357.764L360.884 180.13L359.129 183.955H360.989ZM368.653 176.785C368.653 175.825 369.178 175.06 370.168 175.06C371.263 175.06 371.668 175.78 371.668 176.68V181H373.408V176.38C373.408 174.775 372.553 173.485 370.768 173.485C369.958 173.485 369.088 173.83 368.608 174.67V173.695H366.913V181H368.653V176.785ZM378.706 175.075C379.816 175.075 380.311 175.795 380.476 176.44L382.036 175.87C381.736 174.7 380.656 173.47 378.691 173.47C376.591 173.47 374.956 175.09 374.956 177.34C374.956 179.56 376.591 181.225 378.736 181.225C380.656 181.225 381.751 179.98 382.096 178.84L380.566 178.285C380.401 178.84 379.876 179.635 378.736 179.635C377.641 179.635 376.696 178.81 376.696 177.34C376.696 175.87 377.641 175.075 378.706 175.075ZM384.783 176.545C384.843 175.765 385.473 174.925 386.568 174.925C387.768 174.925 388.338 175.69 388.368 176.545H384.783ZM388.563 178.45C388.323 179.17 387.783 179.725 386.733 179.725C385.653 179.725 384.783 178.93 384.738 177.82H390.078C390.093 177.79 390.123 177.55 390.123 177.265C390.123 174.955 388.803 173.47 386.553 173.47C384.708 173.47 382.998 175 382.998 177.31C382.998 179.785 384.753 181.225 386.733 181.225C388.488 181.225 389.643 180.19 390.033 178.915L388.563 178.45ZM392.956 177.325C392.956 175.93 393.796 175.045 394.936 175.045C396.076 175.045 396.856 175.915 396.856 177.31C396.856 178.705 396.061 179.65 394.921 179.65C393.736 179.65 392.956 178.72 392.956 177.325ZM398.536 170.14H396.841V174.55C396.616 174.085 395.971 173.5 394.696 173.5C392.641 173.5 391.216 175.225 391.216 177.325C391.216 179.53 392.626 181.18 394.726 181.18C395.761 181.18 396.526 180.67 396.871 180.055C396.871 180.355 396.916 180.835 396.946 181H398.611C398.596 180.88 398.536 180.325 398.536 179.665V170.14ZM413.29 181V170.365H411.475V174.76H406.48V170.365H404.68V181H406.48V176.455H411.475V181H413.29ZM416.878 176.545C416.938 175.765 417.568 174.925 418.663 174.925C419.863 174.925 420.433 175.69 420.463 176.545H416.878ZM420.658 178.45C420.418 179.17 419.878 179.725 418.828 179.725C417.748 179.725 416.878 178.93 416.833 177.82H422.173C422.188 177.79 422.218 177.55 422.218 177.265C422.218 174.955 420.898 173.47 418.648 173.47C416.803 173.47 415.093 175 415.093 177.31C415.093 179.785 416.848 181.225 418.828 181.225C420.583 181.225 421.738 180.19 422.128 178.915L420.658 178.45ZM425.606 181V173.695H423.881V181H425.606ZM423.611 171.13C423.611 171.76 424.121 172.255 424.736 172.255C425.366 172.255 425.876 171.76 425.876 171.13C425.876 170.5 425.366 169.99 424.736 169.99C424.121 169.99 423.611 170.5 423.611 171.13ZM427.326 181.405C427.521 182.875 428.871 184.075 430.806 184.075C433.551 184.075 434.556 182.26 434.556 180.31V173.695H432.876V174.625C432.561 174.025 431.856 173.56 430.716 173.56C428.706 173.56 427.341 175.165 427.341 177.115C427.341 179.17 428.766 180.67 430.716 180.67C431.781 180.67 432.516 180.175 432.831 179.605V180.37C432.831 181.855 432.141 182.56 430.761 182.56C429.756 182.56 429.051 181.885 428.931 180.985L427.326 181.405ZM431.001 179.185C429.861 179.185 429.096 178.39 429.096 177.115C429.096 175.87 429.891 175.06 431.001 175.06C432.081 175.06 432.876 175.87 432.876 177.115C432.876 178.375 432.111 179.185 431.001 179.185ZM438.424 176.71C438.454 175.78 438.979 175.06 439.939 175.06C441.034 175.06 441.439 175.78 441.439 176.68V181H443.179V176.38C443.179 174.775 442.309 173.485 440.509 173.485C439.744 173.485 438.919 173.755 438.424 174.4V170.14H436.684V181H438.424V176.71ZM447.502 171.46H445.927V172.555C445.927 173.2 445.582 173.695 444.802 173.695H444.427V175.24H445.777V178.915C445.777 180.28 446.617 181.09 447.967 181.09C448.597 181.09 448.927 180.97 449.032 180.925V179.485C448.957 179.5 448.672 179.545 448.432 179.545C447.787 179.545 447.502 179.275 447.502 178.63V175.24H449.017V173.695H447.502V171.46ZM449.956 171.28C449.956 171.88 450.361 172.27 450.946 172.27C451.096 172.27 451.231 172.225 451.261 172.195C451.231 172.87 450.691 173.425 450.076 173.545V174.355C450.976 174.25 452.251 173.53 452.251 171.64C452.251 170.815 451.741 170.275 451.036 170.275C450.406 170.275 449.956 170.725 449.956 171.28ZM452.716 171.28C452.716 171.88 453.136 172.27 453.721 172.27C453.871 172.27 453.991 172.225 454.021 172.195C454.006 172.87 453.466 173.425 452.851 173.545V174.355C453.736 174.25 455.011 173.53 455.011 171.64C455.011 170.815 454.501 170.275 453.811 170.275C453.181 170.275 452.716 170.725 452.716 171.28ZM352.584 200H354.624L352.224 195.62C353.709 195.26 354.624 194.105 354.624 192.59C354.624 190.79 353.349 189.365 351.294 189.365H347.214V200H349.029V195.8H350.349L352.584 200ZM349.029 194.21V190.955H350.964C352.074 190.955 352.794 191.6 352.794 192.59C352.794 193.565 352.074 194.21 350.964 194.21H349.029ZM357.361 195.545C357.421 194.765 358.051 193.925 359.146 193.925C360.346 193.925 360.916 194.69 360.946 195.545H357.361ZM361.141 197.45C360.901 198.17 360.361 198.725 359.311 198.725C358.231 198.725 357.361 197.93 357.316 196.82H362.656C362.671 196.79 362.701 196.55 362.701 196.265C362.701 193.955 361.381 192.47 359.131 192.47C357.286 192.47 355.576 194 355.576 196.31C355.576 198.785 357.331 200.225 359.311 200.225C361.066 200.225 362.221 199.19 362.611 197.915L361.141 197.45ZM366.089 202.85V199.175C366.464 199.73 367.259 200.18 368.309 200.18C370.409 200.18 371.744 198.53 371.744 196.34C371.744 194.18 370.529 192.53 368.369 192.53C367.244 192.53 366.404 193.055 366.044 193.685V192.695H364.364V202.85H366.089ZM370.004 196.34C370.004 197.735 369.194 198.635 368.039 198.635C366.899 198.635 366.074 197.735 366.074 196.34C366.074 194.975 366.899 194.075 368.039 194.075C369.209 194.075 370.004 194.975 370.004 196.34ZM376.627 198.665C375.562 198.665 374.587 197.855 374.587 196.34C374.587 194.825 375.562 194.045 376.627 194.045C377.707 194.045 378.667 194.825 378.667 196.34C378.667 197.87 377.707 198.665 376.627 198.665ZM376.627 192.47C374.452 192.47 372.847 194.105 372.847 196.34C372.847 198.59 374.452 200.225 376.627 200.225C378.817 200.225 380.422 198.59 380.422 196.34C380.422 194.105 378.817 192.47 376.627 192.47ZM381.459 198.02C381.549 198.845 382.359 200.225 384.474 200.225C386.334 200.225 387.234 198.995 387.234 197.885C387.234 196.805 386.514 195.965 385.134 195.665L384.024 195.44C383.574 195.35 383.289 195.065 383.289 194.675C383.289 194.225 383.724 193.835 384.339 193.835C385.314 193.835 385.629 194.51 385.689 194.93L387.159 194.51C387.039 193.79 386.379 192.47 384.339 192.47C382.824 192.47 381.654 193.55 381.654 194.825C381.654 195.83 382.329 196.67 383.619 196.955L384.699 197.195C385.284 197.315 385.554 197.615 385.554 198.005C385.554 198.455 385.179 198.845 384.459 198.845C383.529 198.845 383.034 198.26 382.974 197.6L381.459 198.02ZM390.684 200V192.695H388.959V200H390.684ZM388.689 190.13C388.689 190.76 389.199 191.255 389.814 191.255C390.444 191.255 390.954 190.76 390.954 190.13C390.954 189.5 390.444 188.99 389.814 188.99C389.199 188.99 388.689 189.5 388.689 190.13ZM395.134 190.46H393.559V191.555C393.559 192.2 393.214 192.695 392.434 192.695H392.059V194.24H393.409V197.915C393.409 199.28 394.249 200.09 395.599 200.09C396.229 200.09 396.559 199.97 396.664 199.925V198.485C396.589 198.5 396.304 198.545 396.064 198.545C395.419 198.545 395.134 198.275 395.134 197.63V194.24H396.649V192.695H395.134V190.46ZM401.573 198.665C400.508 198.665 399.533 197.855 399.533 196.34C399.533 194.825 400.508 194.045 401.573 194.045C402.653 194.045 403.613 194.825 403.613 196.34C403.613 197.87 402.653 198.665 401.573 198.665ZM401.573 192.47C399.398 192.47 397.793 194.105 397.793 196.34C397.793 198.59 399.398 200.225 401.573 200.225C403.763 200.225 405.368 198.59 405.368 196.34C405.368 194.105 403.763 192.47 401.573 192.47ZM411.325 192.65C411.25 192.635 411.07 192.605 410.86 192.605C409.9 192.605 409.09 193.07 408.745 193.865V192.695H407.05V200H408.79V196.52C408.79 195.155 409.405 194.375 410.755 194.375C410.935 194.375 411.13 194.39 411.325 194.42V192.65ZM415.261 202.955L419.911 192.695H418.066L416.101 197.315L414.001 192.695H412.036L415.156 199.13L413.401 202.955H415.261Z" fill="black"/>
<rect x="291.75" y="150.75" width="181.5" height="68.5" rx="19.25" stroke="black" stroke-width="1.5"/>
<path d="M20.53 15.238V28H25.246C27.622 28 29.206 26.524 29.206 24.472C29.206 22.96 28.27 21.79 26.92 21.43C28.018 21.034 28.81 20.026 28.81 18.676C28.81 16.678 27.37 15.238 24.922 15.238H20.53ZM22.672 20.638V17.074H24.58C25.894 17.074 26.65 17.776 26.65 18.856C26.65 19.918 25.894 20.638 24.634 20.638H22.672ZM22.672 26.164V22.456H24.94C26.272 22.456 27.01 23.23 27.01 24.328C27.01 25.462 26.164 26.164 24.868 26.164H22.672ZM33.3716 28V14.968H31.2836V28H33.3716ZM39.9168 26.398C38.6388 26.398 37.4688 25.426 37.4688 23.608C37.4688 21.79 38.6388 20.854 39.9168 20.854C41.2128 20.854 42.3648 21.79 42.3648 23.608C42.3648 25.444 41.2128 26.398 39.9168 26.398ZM39.9168 18.964C37.3068 18.964 35.3808 20.926 35.3808 23.608C35.3808 26.308 37.3068 28.27 39.9168 28.27C42.5448 28.27 44.4708 26.308 44.4708 23.608C44.4708 20.926 42.5448 18.964 39.9168 18.964ZM50.3047 20.89C51.6367 20.89 52.2307 21.754 52.4287 22.528L54.3007 21.844C53.9407 20.44 52.6447 18.964 50.2867 18.964C47.7667 18.964 45.8047 20.908 45.8047 23.608C45.8047 26.272 47.7667 28.27 50.3407 28.27C52.6447 28.27 53.9587 26.776 54.3727 25.408L52.5367 24.742C52.3387 25.408 51.7087 26.362 50.3407 26.362C49.0267 26.362 47.8927 25.372 47.8927 23.608C47.8927 21.844 49.0267 20.89 50.3047 20.89ZM64.435 19.234H61.663L58.297 22.78V14.968H56.227V28H58.297V25.552L59.377 24.418L61.951 28H64.507L60.835 22.942L64.435 19.234ZM72.8228 26.02V17.218H75.1088C77.3228 17.218 79.1408 18.658 79.1408 21.646C79.1408 24.598 77.3048 26.02 75.0908 26.02H72.8228ZM75.1628 28C78.6188 28 81.3908 25.732 81.3908 21.646C81.3908 17.542 78.6548 15.238 75.1808 15.238H70.6628V28H75.1628ZM82.933 25.624C82.933 27.01 84.067 28.27 85.903 28.27C87.325 28.27 88.189 27.55 88.603 26.884C88.603 27.586 88.675 27.946 88.693 28H90.637C90.619 27.91 90.529 27.388 90.529 26.596V22.24C90.529 20.494 89.503 18.964 86.803 18.964C84.643 18.964 83.275 20.314 83.113 21.826L85.021 22.258C85.111 21.376 85.723 20.674 86.821 20.674C87.973 20.674 88.477 21.268 88.477 22.006C88.477 22.312 88.333 22.564 87.829 22.636L85.579 22.978C84.085 23.194 82.933 24.058 82.933 25.624ZM86.299 26.632C85.471 26.632 85.021 26.092 85.021 25.498C85.021 24.778 85.543 24.418 86.191 24.31L88.477 23.968V24.364C88.477 26.074 87.469 26.632 86.299 26.632ZM95.664 16.552H93.774V17.866C93.774 18.64 93.36 19.234 92.424 19.234H91.974V21.088H93.594V25.498C93.594 27.136 94.602 28.108 96.222 28.108C96.978 28.108 97.374 27.964 97.5 27.91V26.182C97.41 26.2 97.068 26.254 96.78 26.254C96.006 26.254 95.664 25.93 95.664 25.156V21.088H97.482V19.234H95.664V16.552ZM99.1049 25.624C99.1049 27.01 100.239 28.27 102.075 28.27C103.497 28.27 104.361 27.55 104.775 26.884C104.775 27.586 104.847 27.946 104.865 28H106.809C106.791 27.91 106.701 27.388 106.701 26.596V22.24C106.701 20.494 105.675 18.964 102.975 18.964C100.815 18.964 99.4469 20.314 99.2849 21.826L101.193 22.258C101.283 21.376 101.895 20.674 102.993 20.674C104.145 20.674 104.649 21.268 104.649 22.006C104.649 22.312 104.505 22.564 104.001 22.636L101.751 22.978C100.257 23.194 99.1049 24.058 99.1049 25.624ZM102.471 26.632C101.643 26.632 101.193 26.092 101.193 25.498C101.193 24.778 101.715 24.418 102.363 24.31L104.649 23.968V24.364C104.649 26.074 103.641 26.632 102.471 26.632ZM122.258 18.226C121.97 16.804 120.8 14.968 117.794 14.968C115.418 14.968 113.456 16.732 113.456 18.874C113.456 20.782 114.752 22.06 116.696 22.456L118.496 22.834C119.594 23.068 120.206 23.734 120.206 24.562C120.206 25.552 119.414 26.326 117.884 26.326C116.048 26.326 115.094 25.102 114.968 23.77L112.952 24.346C113.15 26.182 114.644 28.27 117.884 28.27C120.8 28.27 122.402 26.38 122.402 24.4C122.402 22.6 121.196 21.178 118.946 20.728L117.11 20.35C116.12 20.134 115.616 19.522 115.616 18.712C115.616 17.74 116.516 16.876 117.812 16.876C119.522 16.876 120.188 18.046 120.314 18.838L122.258 18.226ZM128.194 26.398C126.916 26.398 125.746 25.426 125.746 23.608C125.746 21.79 126.916 20.854 128.194 20.854C129.49 20.854 130.642 21.79 130.642 23.608C130.642 25.444 129.49 26.398 128.194 26.398ZM128.194 18.964C125.584 18.964 123.658 20.926 123.658 23.608C123.658 26.308 125.584 28.27 128.194 28.27C130.822 28.27 132.748 26.308 132.748 23.608C132.748 20.926 130.822 18.964 128.194 18.964ZM140.419 27.028C140.419 27.388 140.455 27.802 140.491 28H142.489C142.453 27.676 142.399 27.118 142.399 26.398V19.234H140.311V24.418C140.311 25.57 139.681 26.38 138.475 26.38C137.215 26.38 136.711 25.462 136.711 24.382V19.234H134.623V24.76C134.623 26.704 135.847 28.252 137.935 28.252C138.961 28.252 139.987 27.82 140.419 27.028ZM150.232 19.18C150.142 19.162 149.926 19.126 149.674 19.126C148.522 19.126 147.55 19.684 147.136 20.638V19.234H145.102V28H147.19V23.824C147.19 22.186 147.928 21.25 149.548 21.25C149.764 21.25 149.998 21.268 150.232 21.304V19.18ZM155.703 20.89C157.035 20.89 157.629 21.754 157.827 22.528L159.699 21.844C159.339 20.44 158.043 18.964 155.685 18.964C153.165 18.964 151.203 20.908 151.203 23.608C151.203 26.272 153.165 28.27 155.739 28.27C158.043 28.27 159.357 26.776 159.771 25.408L157.935 24.742C157.737 25.408 157.107 26.362 155.739 26.362C154.425 26.362 153.291 25.372 153.291 23.608C153.291 21.844 154.425 20.89 155.703 20.89ZM162.996 22.654C163.068 21.718 163.824 20.71 165.138 20.71C166.578 20.71 167.262 21.628 167.298 22.654H162.996ZM167.532 24.94C167.244 25.804 166.596 26.47 165.336 26.47C164.04 26.47 162.996 25.516 162.942 24.184H169.35C169.368 24.148 169.404 23.86 169.404 23.518C169.404 20.746 167.82 18.964 165.12 18.964C162.906 18.964 160.854 20.8 160.854 23.572C160.854 26.542 162.96 28.27 165.336 28.27C167.442 28.27 168.828 27.028 169.296 25.498L167.532 24.94Z" fill="black"/>
<path d="M184.186 84.852V83.747H182.678V82.759C182.678 81.901 183.237 81.693 183.666 81.693C183.978 81.693 184.134 81.745 184.199 81.771V80.679C184.147 80.64 183.887 80.549 183.471 80.549C182.34 80.549 181.417 81.303 181.417 82.694V83.747H180.26V84.852H181.417V90H182.678V84.852H184.186ZM186.035 86.23C186.087 85.424 186.711 84.631 187.738 84.631C188.843 84.631 189.428 85.333 189.454 86.23H186.035ZM189.636 87.855C189.402 88.557 188.895 89.116 187.881 89.116C186.828 89.116 186.022 88.336 185.996 87.218H190.702C190.715 87.14 190.728 86.984 190.728 86.828C190.728 84.878 189.649 83.552 187.725 83.552C186.152 83.552 184.735 84.891 184.735 86.854C184.735 88.973 186.204 90.195 187.881 90.195C189.337 90.195 190.338 89.324 190.689 88.219L189.636 87.855ZM193.926 81.771H192.808V82.785C192.808 83.331 192.522 83.747 191.846 83.747H191.508V84.852H192.704V88.284C192.704 89.415 193.38 90.065 194.446 90.065C194.862 90.065 195.174 89.987 195.278 89.948V88.908C195.174 88.934 194.953 88.96 194.797 88.96C194.16 88.96 193.926 88.674 193.926 88.102V84.852H195.278V83.747H193.926V81.771ZM199.472 84.683C200.538 84.683 200.993 85.398 201.149 86.009L202.254 85.541C201.994 84.592 201.136 83.552 199.472 83.552C197.691 83.552 196.326 84.917 196.326 86.867C196.326 88.765 197.665 90.195 199.485 90.195C201.11 90.195 202.007 89.142 202.306 88.245L201.227 87.777C201.084 88.271 200.655 89.064 199.485 89.064C198.471 89.064 197.574 88.297 197.574 86.867C197.574 85.411 198.484 84.683 199.472 84.683ZM204.961 86.321C204.987 85.398 205.481 84.67 206.417 84.67C207.509 84.67 207.873 85.372 207.873 86.243V90H209.095V86.035C209.095 84.644 208.354 83.565 206.859 83.565C206.144 83.565 205.416 83.812 204.961 84.475V80.588H203.739V90H204.961V86.321ZM217.812 83.747L216.187 88.453L214.783 83.747H213.444L215.498 90H216.785L218.41 85.242L220.074 90H221.335L223.363 83.747H222.076L220.698 88.453L219.073 83.747H217.812ZM225.807 90V83.747H224.598V90H225.807ZM224.325 81.381C224.325 81.862 224.715 82.252 225.196 82.252C225.69 82.252 226.08 81.862 226.08 81.381C226.08 80.887 225.69 80.497 225.196 80.497C224.715 80.497 224.325 80.887 224.325 81.381ZM229.524 81.771H228.406V82.785C228.406 83.331 228.12 83.747 227.444 83.747H227.106V84.852H228.302V88.284C228.302 89.415 228.978 90.065 230.044 90.065C230.46 90.065 230.772 89.987 230.876 89.948V88.908C230.772 88.934 230.551 88.96 230.395 88.96C229.758 88.96 229.524 88.674 229.524 88.102V84.852H230.876V83.747H229.524V81.771ZM233.729 86.321C233.755 85.398 234.249 84.67 235.185 84.67C236.277 84.67 236.641 85.372 236.641 86.243V90H237.863V86.035C237.863 84.644 237.122 83.565 235.627 83.565C234.912 83.565 234.184 83.812 233.729 84.475V80.588H232.507V90H233.729V86.321ZM246.528 83.682C246.463 83.669 246.294 83.643 246.125 83.643C245.488 83.643 244.708 83.877 244.253 84.839V83.747H243.057V90H244.279V86.867C244.279 85.489 244.968 84.943 245.995 84.943C246.164 84.943 246.346 84.956 246.528 84.982V83.682ZM248.56 86.23C248.612 85.424 249.236 84.631 250.263 84.631C251.368 84.631 251.953 85.333 251.979 86.23H248.56ZM252.161 87.855C251.927 88.557 251.42 89.116 250.406 89.116C249.353 89.116 248.547 88.336 248.521 87.218H253.227C253.24 87.14 253.253 86.984 253.253 86.828C253.253 84.878 252.174 83.552 250.25 83.552C248.677 83.552 247.26 84.891 247.26 86.854C247.26 88.973 248.729 90.195 250.406 90.195C251.862 90.195 252.863 89.324 253.214 88.219L252.161 87.855ZM256.45 81.771H255.332V82.785C255.332 83.331 255.046 83.747 254.37 83.747H254.032V84.852H255.228V88.284C255.228 89.415 255.904 90.065 256.97 90.065C257.386 90.065 257.698 89.987 257.802 89.948V88.908C257.698 88.934 257.477 88.96 257.321 88.96C256.684 88.96 256.45 88.674 256.45 88.102V84.852H257.802V83.747H256.45V81.771ZM262.778 83.682C262.713 83.669 262.544 83.643 262.375 83.643C261.738 83.643 260.958 83.877 260.503 84.839V83.747H259.307V90H260.529V86.867C260.529 85.489 261.218 84.943 262.245 84.943C262.414 84.943 262.596 84.956 262.778 84.982V83.682ZM265.83 92.613L269.899 83.747H268.586L266.714 88.063L264.764 83.747H263.36L266.051 89.311L264.491 92.613H265.83Z" fill="black"/>
<path d="M180.455 173.375C180.559 174.09 181.287 175.195 183.003 175.195C184.55 175.195 185.291 174.142 185.291 173.258C185.291 172.335 184.693 171.646 183.562 171.399L182.548 171.178C182.067 171.074 181.833 170.801 181.833 170.424C181.833 169.995 182.249 169.592 182.873 169.592C183.861 169.592 184.121 170.307 184.173 170.632L185.252 170.229C185.122 169.67 184.589 168.552 182.873 168.552C181.651 168.552 180.65 169.462 180.65 170.528C180.65 171.412 181.235 172.075 182.21 172.283L183.276 172.517C183.796 172.634 184.082 172.933 184.082 173.323C184.082 173.765 183.705 174.155 183.016 174.155C182.132 174.155 181.638 173.635 181.56 172.985L180.455 173.375ZM186.401 173.323C186.401 174.311 187.22 175.195 188.494 175.195C189.612 175.195 190.236 174.597 190.509 174.155C190.509 174.61 190.548 174.844 190.574 175H191.77C191.744 174.844 191.692 174.519 191.692 173.973V170.84C191.692 169.618 190.964 168.552 189.092 168.552C187.74 168.552 186.661 169.384 186.531 170.58L187.701 170.853C187.779 170.125 188.26 169.592 189.118 169.592C190.067 169.592 190.47 170.099 190.47 170.71C190.47 170.931 190.366 171.126 189.989 171.178L188.299 171.425C187.22 171.581 186.401 172.205 186.401 173.323ZM188.663 174.168C188.039 174.168 187.649 173.726 187.649 173.258C187.649 172.699 188.039 172.4 188.559 172.322L190.47 172.036V172.322C190.47 173.687 189.664 174.168 188.663 174.168ZM198.952 168.747H197.639L195.845 173.57L194.064 168.747H192.686L195.221 175H196.456L198.952 168.747ZM200.724 171.23C200.776 170.424 201.4 169.631 202.427 169.631C203.532 169.631 204.117 170.333 204.143 171.23H200.724ZM204.325 172.855C204.091 173.557 203.584 174.116 202.57 174.116C201.517 174.116 200.711 173.336 200.685 172.218H205.391C205.404 172.14 205.417 171.984 205.417 171.828C205.417 169.878 204.338 168.552 202.414 168.552C200.841 168.552 199.424 169.891 199.424 171.854C199.424 173.973 200.893 175.195 202.57 175.195C204.026 175.195 205.027 174.324 205.378 173.219L204.325 172.855ZM206.392 173.375C206.496 174.09 207.224 175.195 208.94 175.195C210.487 175.195 211.228 174.142 211.228 173.258C211.228 172.335 210.63 171.646 209.499 171.399L208.485 171.178C208.004 171.074 207.77 170.801 207.77 170.424C207.77 169.995 208.186 169.592 208.81 169.592C209.798 169.592 210.058 170.307 210.11 170.632L211.189 170.229C211.059 169.67 210.526 168.552 208.81 168.552C207.588 168.552 206.587 169.462 206.587 170.528C206.587 171.412 207.172 172.075 208.147 172.283L209.213 172.517C209.733 172.634 210.019 172.933 210.019 173.323C210.019 173.765 209.642 174.155 208.953 174.155C208.069 174.155 207.575 173.635 207.497 172.985L206.392 173.375ZM218.782 174.103C217.742 174.103 216.832 173.323 216.832 171.867C216.832 170.424 217.742 169.644 218.782 169.644C219.822 169.644 220.732 170.424 220.732 171.867C220.732 173.323 219.822 174.103 218.782 174.103ZM218.782 168.552C216.91 168.552 215.584 169.969 215.584 171.867C215.584 173.778 216.91 175.195 218.782 175.195C220.654 175.195 221.98 173.778 221.98 171.867C221.98 169.969 220.654 168.552 218.782 168.552ZM230.278 166.693C230.59 166.693 230.746 166.745 230.811 166.771V165.679C230.759 165.64 230.499 165.549 230.083 165.549C228.952 165.549 228.029 166.303 228.029 167.694V168.747H225.182V167.759C225.182 166.901 225.741 166.693 226.17 166.693C226.482 166.693 226.638 166.745 226.703 166.771V165.679C226.651 165.64 226.391 165.549 225.975 165.549C224.844 165.549 223.921 166.303 223.921 167.694V168.747H222.764V169.852H223.921V175H225.182V169.852H228.029V175H229.29V169.852H230.798V168.747H229.29V167.759C229.29 166.901 229.849 166.693 230.278 166.693ZM231.528 173.375C231.632 174.09 232.36 175.195 234.076 175.195C235.623 175.195 236.364 174.142 236.364 173.258C236.364 172.335 235.766 171.646 234.635 171.399L233.621 171.178C233.14 171.074 232.906 170.801 232.906 170.424C232.906 169.995 233.322 169.592 233.946 169.592C234.934 169.592 235.194 170.307 235.246 170.632L236.325 170.229C236.195 169.67 235.662 168.552 233.946 168.552C232.724 168.552 231.723 169.462 231.723 170.528C231.723 171.412 232.308 172.075 233.283 172.283L234.349 172.517C234.869 172.634 235.155 172.933 235.155 173.323C235.155 173.765 234.778 174.155 234.089 174.155C233.205 174.155 232.711 173.635 232.633 172.985L231.528 173.375ZM238.721 171.23C238.773 170.424 239.397 169.631 240.424 169.631C241.529 169.631 242.114 170.333 242.14 171.23H238.721ZM242.322 172.855C242.088 173.557 241.581 174.116 240.567 174.116C239.514 174.116 238.708 173.336 238.682 172.218H243.388C243.401 172.14 243.414 171.984 243.414 171.828C243.414 169.878 242.335 168.552 240.411 168.552C238.838 168.552 237.421 169.891 237.421 171.854C237.421 173.973 238.89 175.195 240.567 175.195C242.023 175.195 243.024 174.324 243.375 173.219L242.322 172.855ZM246.612 166.771H245.494V167.785C245.494 168.331 245.208 168.747 244.532 168.747H244.194V169.852H245.39V173.284C245.39 174.415 246.066 175.065 247.132 175.065C247.548 175.065 247.86 174.987 247.964 174.948V173.908C247.86 173.934 247.639 173.96 247.483 173.96C246.846 173.96 246.612 173.674 246.612 173.102V169.852H247.964V168.747H246.612V166.771Z" fill="black"/>
<path d="M244.323 293.35C245.311 293.35 246.195 292.531 246.195 291.257C246.195 290.139 245.597 289.515 245.155 289.242C245.61 289.242 245.844 289.203 246 289.177L246 287.981C245.844 288.007 245.519 288.059 244.973 288.059L241.84 288.059C240.618 288.059 239.552 288.787 239.552 290.659C239.552 292.011 240.384 293.09 241.58 293.22L241.853 292.05C241.125 291.972 240.592 291.491 240.592 290.633C240.592 289.684 241.099 289.281 241.71 289.281C241.931 289.281 242.126 289.385 242.178 289.762L242.425 291.452C242.581 292.531 243.205 293.35 244.323 293.35ZM245.168 291.088C245.168 291.712 244.726 292.102 244.258 292.102C243.699 292.102 243.4 291.712 243.322 291.192L243.036 289.281L243.322 289.281C244.687 289.281 245.168 290.087 245.168 291.088ZM246 281.696L245.09 281.696C245.766 281.306 246.169 280.591 246.169 279.668C246.169 277.809 244.7 276.756 242.841 276.756C241.021 276.756 239.565 277.731 239.565 279.629C239.565 280.669 240.072 281.397 240.631 281.696L236.588 281.696L236.588 282.905L246 282.905L246 281.696ZM242.841 278.004C244.193 278.004 245.077 278.732 245.077 279.85C245.077 280.929 244.193 281.709 242.841 281.709C241.489 281.709 240.644 280.929 240.644 279.85C240.644 278.719 241.489 278.004 242.841 278.004ZM246 273.977L236.588 273.977L236.588 275.199L246 275.199L246 273.977ZM245.103 269.22C245.103 270.26 244.323 271.17 242.867 271.17C241.424 271.17 240.644 270.26 240.644 269.22C240.644 268.18 241.424 267.27 242.867 267.27C244.323 267.27 245.103 268.18 245.103 269.22ZM239.552 269.22C239.552 271.092 240.969 272.418 242.867 272.418C244.778 272.418 246.195 271.092 246.195 269.22C246.195 267.348 244.778 266.022 242.867 266.022C240.969 266.022 239.552 267.348 239.552 269.22ZM240.683 261.833C240.683 260.767 241.398 260.312 242.009 260.156L241.541 259.051C240.592 259.311 239.552 260.169 239.552 261.833C239.552 263.614 240.917 264.979 242.867 264.979C244.765 264.979 246.195 263.64 246.195 261.82C246.195 260.195 245.142 259.298 244.245 258.999L243.777 260.078C244.271 260.221 245.064 260.65 245.064 261.82C245.064 262.834 244.297 263.731 242.867 263.731C241.411 263.731 240.683 262.821 240.683 261.833ZM239.747 251.962L239.747 253.652L242.516 256.356L236.588 256.356L236.588 257.565L246 257.565L246 256.356L244.115 256.356L243.244 255.485L246 253.444L246 251.91L242.386 254.627L239.747 251.962Z" fill="black"/>
<path d="M280.707 102.707C281.098 102.317 281.098 101.683 280.707 101.293L274.343 94.9289C273.953 94.5384 273.319 94.5384 272.929 94.9289C272.538 95.3195 272.538 95.9526 272.929 96.3431L278.586 102L272.929 107.657C272.538 108.047 272.538 108.681 272.929 109.071C273.319 109.462 273.953 109.462 274.343 109.071L280.707 102.707ZM171 103H280V101H171V103Z" fill="black"/>
<path d="M117 508.983C116.991 509.535 117.431 509.99 117.983 510L126.982 510.152C127.534 510.162 127.989 509.722 127.999 509.169C128.008 508.617 127.568 508.162 127.016 508.153L119.017 508.017L119.152 500.018C119.162 499.466 118.722 499.011 118.169 499.001C117.617 498.992 117.162 499.432 117.153 499.984L117 508.983ZM207.305 421.281L117.305 508.281L118.695 509.719L208.695 422.719L207.305 421.281Z" fill="black"/>
<path d="M257.293 319.707C257.683 320.098 258.317 320.098 258.707 319.707L265.071 313.343C265.462 312.953 265.462 312.319 265.071 311.929C264.681 311.538 264.047 311.538 263.657 311.929L258 317.586L252.343 311.929C251.953 311.538 251.319 311.538 250.929 311.929C250.538 312.319 250.538 312.953 250.929 313.343L257.293 319.707ZM257 252L257 319L259 319L259 252L257 252Z" fill="black"/>
<path d="M389.9 504.995C390.449 505.05 390.94 504.65 390.995 504.1L391.896 495.145C391.952 494.596 391.551 494.106 391.002 494.05C390.452 493.995 389.962 494.396 389.907 494.945L389.105 502.905L381.145 502.104C380.596 502.048 380.106 502.449 380.05 502.998C379.995 503.548 380.396 504.038 380.945 504.093L389.9 504.995ZM322.226 422.633L389.226 504.633L390.774 503.367L323.774 421.367L322.226 422.633Z" fill="black"/>
<path d="M215.11 504.456C215.362 504.948 215.965 505.142 216.456 504.89L224.465 500.783C224.956 500.531 225.15 499.928 224.898 499.437C224.646 498.945 224.043 498.751 223.552 499.003L216.434 502.654L212.783 495.535C212.531 495.044 211.928 494.85 211.437 495.102C210.945 495.354 210.751 495.957 211.003 496.448L215.11 504.456ZM234.048 444.693L215.048 503.693L216.952 504.307L235.952 445.307L234.048 444.693Z" fill="black"/>
<path d="M215.11 504.456C215.362 504.948 215.965 505.142 216.456 504.89L224.465 500.783C224.956 500.531 225.15 499.928 224.898 499.437C224.646 498.945 224.043 498.751 223.552 499.003L216.434 502.654L212.783 495.535C212.531 495.044 211.928 494.85 211.437 495.102C210.945 495.354 210.751 495.957 211.003 496.448L215.11 504.456ZM234.048 444.693L215.048 503.693L216.952 504.307L235.952 445.307L234.048 444.693Z" fill="black"/>
<path d="M215.11 504.456C215.362 504.948 215.965 505.142 216.456 504.89L224.465 500.783C224.956 500.531 225.15 499.928 224.898 499.437C224.646 498.945 224.043 498.751 223.552 499.003L216.434 502.654L212.783 495.535C212.531 495.044 211.928 494.85 211.437 495.102C210.945 495.354 210.751 495.957 211.003 496.448L215.11 504.456ZM234.048 444.693L215.048 503.693L216.952 504.307L235.952 445.307L234.048 444.693Z" fill="black"/>
<path d="M298.516 504.875C299 505.142 299.608 504.967 299.875 504.484L304.228 496.607C304.496 496.123 304.32 495.515 303.837 495.248C303.353 494.98 302.745 495.156 302.478 495.639L298.608 502.641L291.607 498.772C291.123 498.504 290.515 498.68 290.248 499.163C289.98 499.647 290.156 500.255 290.639 500.522L298.516 504.875ZM281.039 445.277L298.039 504.277L299.961 503.723L282.961 444.723L281.039 445.277Z" fill="black"/>
<path d="M280.707 185.707C281.098 185.317 281.098 184.683 280.707 184.293L274.343 177.929C273.953 177.538 273.319 177.538 272.929 177.929C272.538 178.319 272.538 178.953 272.929 179.343L278.586 185L272.929 190.657C272.538 191.047 272.538 191.681 272.929 192.071C273.319 192.462 273.953 192.462 274.343 192.071L280.707 185.707ZM171 186H280V184H171V186Z" fill="black"/>
<circle cx="258" cy="382" r="48.5" stroke="black" stroke-width="3"/>
<circle cx="118" cy="551" r="35" stroke="black" stroke-width="2"/>
<path d="M99.9268 556V546.783H98.6268V556H99.9268ZM103.102 552.386C103.102 551.437 103.596 550.67 104.558 550.67C105.65 550.67 106.014 551.372 106.014 552.243V556H107.236V552.035C107.236 550.644 106.495 549.565 105 549.565C104.272 549.565 103.531 549.864 103.076 550.644V549.747H101.88V556H103.102V552.386ZM109.648 552.854C109.648 551.567 110.376 550.657 111.494 550.657C112.612 550.657 113.288 551.541 113.288 552.828C113.288 554.115 112.599 555.09 111.481 555.09C110.311 555.09 109.648 554.141 109.648 552.854ZM113.301 555.155C113.301 555.532 113.34 555.857 113.366 556H114.549C114.536 555.896 114.484 555.441 114.484 554.843V546.588H113.275V550.631C113.067 550.124 112.469 549.578 111.364 549.578C109.596 549.578 108.4 551.086 108.4 552.854C108.4 554.713 109.531 556.169 111.364 556.169C112.339 556.169 113.002 555.649 113.301 555.051V555.155ZM117.096 552.23C117.148 551.424 117.772 550.631 118.799 550.631C119.904 550.631 120.489 551.333 120.515 552.23H117.096ZM120.697 553.855C120.463 554.557 119.956 555.116 118.942 555.116C117.889 555.116 117.083 554.336 117.057 553.218H121.763C121.776 553.14 121.789 552.984 121.789 552.828C121.789 550.878 120.71 549.552 118.786 549.552C117.213 549.552 115.796 550.891 115.796 552.854C115.796 554.973 117.265 556.195 118.942 556.195C120.398 556.195 121.399 555.324 121.75 554.219L120.697 553.855ZM122.115 556H123.571L125.157 553.699L126.769 556H128.238C127.861 555.493 126.314 553.322 125.937 552.815L128.16 549.747H126.717L125.209 551.944L123.675 549.747H122.193L124.442 552.815L122.115 556ZM129.817 552.23C129.869 551.424 130.493 550.631 131.52 550.631C132.625 550.631 133.21 551.333 133.236 552.23H129.817ZM133.418 553.855C133.184 554.557 132.677 555.116 131.663 555.116C130.61 555.116 129.804 554.336 129.778 553.218H134.484C134.497 553.14 134.51 552.984 134.51 552.828C134.51 550.878 133.431 549.552 131.507 549.552C129.934 549.552 128.517 550.891 128.517 552.854C128.517 554.973 129.986 556.195 131.663 556.195C133.119 556.195 134.12 555.324 134.471 554.219L133.418 553.855ZM139.281 549.682C139.216 549.669 139.047 549.643 138.878 549.643C138.241 549.643 137.461 549.877 137.006 550.839V549.747H135.81V556H137.032V552.867C137.032 551.489 137.721 550.943 138.748 550.943C138.917 550.943 139.099 550.956 139.281 550.982V549.682Z" fill="black"/>
<circle cx="211" cy="551" r="35" stroke="black" stroke-width="2"/>
<path d="M192.927 556V546.783H191.627V556H192.927ZM196.102 552.386C196.102 551.437 196.596 550.67 197.558 550.67C198.65 550.67 199.014 551.372 199.014 552.243V556H200.236V552.035C200.236 550.644 199.495 549.565 198 549.565C197.272 549.565 196.531 549.864 196.076 550.644V549.747H194.88V556H196.102V552.386ZM202.648 552.854C202.648 551.567 203.376 550.657 204.494 550.657C205.612 550.657 206.288 551.541 206.288 552.828C206.288 554.115 205.599 555.09 204.481 555.09C203.311 555.09 202.648 554.141 202.648 552.854ZM206.301 555.155C206.301 555.532 206.34 555.857 206.366 556H207.549C207.536 555.896 207.484 555.441 207.484 554.843V546.588H206.275V550.631C206.067 550.124 205.469 549.578 204.364 549.578C202.596 549.578 201.4 551.086 201.4 552.854C201.4 554.713 202.531 556.169 204.364 556.169C205.339 556.169 206.002 555.649 206.301 555.051V555.155ZM210.096 552.23C210.148 551.424 210.772 550.631 211.799 550.631C212.904 550.631 213.489 551.333 213.515 552.23H210.096ZM213.697 553.855C213.463 554.557 212.956 555.116 211.942 555.116C210.889 555.116 210.083 554.336 210.057 553.218H214.763C214.776 553.14 214.789 552.984 214.789 552.828C214.789 550.878 213.71 549.552 211.786 549.552C210.213 549.552 208.796 550.891 208.796 552.854C208.796 554.973 210.265 556.195 211.942 556.195C213.398 556.195 214.399 555.324 214.75 554.219L213.697 553.855ZM215.115 556H216.571L218.157 553.699L219.769 556H221.238C220.861 555.493 219.314 553.322 218.937 552.815L221.16 549.747H219.717L218.209 551.944L216.675 549.747H215.193L217.442 552.815L215.115 556ZM222.817 552.23C222.869 551.424 223.493 550.631 224.52 550.631C225.625 550.631 226.21 551.333 226.236 552.23H222.817ZM226.418 553.855C226.184 554.557 225.677 555.116 224.663 555.116C223.61 555.116 222.804 554.336 222.778 553.218H227.484C227.497 553.14 227.51 552.984 227.51 552.828C227.51 550.878 226.431 549.552 224.507 549.552C222.934 549.552 221.517 550.891 221.517 552.854C221.517 554.973 222.986 556.195 224.663 556.195C226.119 556.195 227.12 555.324 227.471 554.219L226.418 553.855ZM232.281 549.682C232.216 549.669 232.047 549.643 231.878 549.643C231.241 549.643 230.461 549.877 230.006 550.839V549.747H228.81V556H230.032V552.867C230.032 551.489 230.721 550.943 231.748 550.943C231.917 550.943 232.099 550.956 232.281 550.982V549.682Z" fill="black"/>
<circle cx="304" cy="551" r="35" stroke="black" stroke-width="2"/>
<path d="M285.927 556V546.783H284.627V556H285.927ZM289.102 552.386C289.102 551.437 289.596 550.67 290.558 550.67C291.65 550.67 292.014 551.372 292.014 552.243V556H293.236V552.035C293.236 550.644 292.495 549.565 291 549.565C290.272 549.565 289.531 549.864 289.076 550.644V549.747H287.88V556H289.102V552.386ZM295.648 552.854C295.648 551.567 296.376 550.657 297.494 550.657C298.612 550.657 299.288 551.541 299.288 552.828C299.288 554.115 298.599 555.09 297.481 555.09C296.311 555.09 295.648 554.141 295.648 552.854ZM299.301 555.155C299.301 555.532 299.34 555.857 299.366 556H300.549C300.536 555.896 300.484 555.441 300.484 554.843V546.588H299.275V550.631C299.067 550.124 298.469 549.578 297.364 549.578C295.596 549.578 294.4 551.086 294.4 552.854C294.4 554.713 295.531 556.169 297.364 556.169C298.339 556.169 299.002 555.649 299.301 555.051V555.155ZM303.096 552.23C303.148 551.424 303.772 550.631 304.799 550.631C305.904 550.631 306.489 551.333 306.515 552.23H303.096ZM306.697 553.855C306.463 554.557 305.956 555.116 304.942 555.116C303.889 555.116 303.083 554.336 303.057 553.218H307.763C307.776 553.14 307.789 552.984 307.789 552.828C307.789 550.878 306.71 549.552 304.786 549.552C303.213 549.552 301.796 550.891 301.796 552.854C301.796 554.973 303.265 556.195 304.942 556.195C306.398 556.195 307.399 555.324 307.75 554.219L306.697 553.855ZM308.115 556H309.571L311.157 553.699L312.769 556H314.238C313.861 555.493 312.314 553.322 311.937 552.815L314.16 549.747H312.717L311.209 551.944L309.675 549.747H308.193L310.442 552.815L308.115 556ZM315.817 552.23C315.869 551.424 316.493 550.631 317.52 550.631C318.625 550.631 319.21 551.333 319.236 552.23H315.817ZM319.418 553.855C319.184 554.557 318.677 555.116 317.663 555.116C316.61 555.116 315.804 554.336 315.778 553.218H320.484C320.497 553.14 320.51 552.984 320.51 552.828C320.51 550.878 319.431 549.552 317.507 549.552C315.934 549.552 314.517 550.891 314.517 552.854C314.517 554.973 315.986 556.195 317.663 556.195C319.119 556.195 320.12 555.324 320.471 554.219L319.418 553.855ZM325.281 549.682C325.216 549.669 325.047 549.643 324.878 549.643C324.241 549.643 323.461 549.877 323.006 550.839V549.747H321.81V556H323.032V552.867C323.032 551.489 323.721 550.943 324.748 550.943C324.917 550.943 325.099 550.956 325.281 550.982V549.682Z" fill="black"/>
<circle cx="397" cy="551" r="35" stroke="black" stroke-width="2"/>
<path d="M391.579 552.848C391.579 553.55 392.119 554.09 392.821 554.09C393.523 554.09 394.081 553.55 394.081 552.848C394.081 552.146 393.523 551.588 392.821 551.588C392.119 551.588 391.579 552.146 391.579 552.848ZM396.246 552.848C396.246 553.55 396.786 554.09 397.488 554.09C398.19 554.09 398.748 553.55 398.748 552.848C398.748 552.146 398.19 551.588 397.488 551.588C396.786 551.588 396.246 552.146 396.246 552.848ZM400.914 552.848C400.914 553.55 401.454 554.09 402.156 554.09C402.858 554.09 403.416 553.55 403.416 552.848C403.416 552.146 402.858 551.588 402.156 551.588C401.454 551.588 400.914 552.146 400.914 552.848Z" fill="black"/>
<path d="M246.174 389V374.111H243.255V380.096H236.766V374.111H233.868V389H236.766V382.826H243.255V389H246.174ZM252.517 393.074L259.006 378.668H256.024L253.483 384.716L250.732 378.668H247.603L251.992 387.698L249.556 393.074H252.517ZM263.071 392.99V387.992C263.575 388.685 264.625 389.252 266.053 389.252C268.972 389.252 270.925 386.942 270.925 383.813C270.925 380.747 269.182 378.437 266.158 378.437C264.604 378.437 263.449 379.13 262.987 379.928V378.668H260.278V392.99H263.071ZM268.174 383.834C268.174 385.682 267.04 386.753 265.612 386.753C264.184 386.753 263.029 385.661 263.029 383.834C263.029 382.007 264.184 380.936 265.612 380.936C267.04 380.936 268.174 382.007 268.174 383.834ZM274.753 382.658C274.816 381.713 275.614 380.621 277.063 380.621C278.659 380.621 279.331 381.629 279.373 382.658H274.753ZM279.646 385.346C279.31 386.27 278.596 386.921 277.294 386.921C275.908 386.921 274.753 385.934 274.69 384.569H282.082C282.082 384.527 282.124 384.107 282.124 383.708C282.124 380.39 280.213 378.353 277.021 378.353C274.375 378.353 271.939 380.495 271.939 383.792C271.939 387.278 274.438 389.315 277.273 389.315C279.814 389.315 281.452 387.824 281.977 386.039L279.646 385.346Z" fill="black"/>
</svg>
