<svg width="206" height="62" viewBox="0 0 206 62" fill="none" xmlns="http://www.w3.org/2000/svg">
<rect width="206" height="62" fill="white"/>
<path d="M49.3771 28.0177V14.1266H55.4156V47.2299H49.3771V33.3858H20.9774V47.2299H14.9389V14.1266H20.9774V28.0177H49.3771Z" fill="#0E1116"/>
<path d="M83.4228 31.1727L98.5189 14.1266H106.492L86.6307 36.3524V47.2299H80.1676V36.3524L60.3067 14.1266H68.2794L83.4228 31.1727Z" fill="#0E1116"/>
<path d="M137.073 14.1266C139.62 14.1266 141.853 14.5975 143.772 15.5392C145.69 16.481 147.184 17.8466 148.253 19.636C149.323 21.4253 149.857 23.5443 149.857 25.9929C149.857 28.4101 149.323 30.5134 148.253 32.3028C147.184 34.0922 145.69 35.4577 143.772 36.3995C141.853 37.3413 139.62 37.8122 137.073 37.8122H117.448V47.2299H111.409V14.1266H137.073ZM134.667 32.4441C136.302 32.4441 137.702 32.3342 138.865 32.1144C140.061 31.8947 141.098 31.3139 141.979 30.3722C142.891 29.4304 143.347 27.9706 143.347 25.9929C143.347 24.0152 142.891 22.5554 141.979 21.6137C141.098 20.6405 140.061 20.0441 138.865 19.8243C137.702 19.6046 136.302 19.4947 134.667 19.4947H117.448V32.4441H134.667Z" fill="#0E1116"/>
<path d="M191.053 14.1266V19.4005H162.182V28.0648H190.11V33.2917H162.182V42.003H191.053V47.2299H156.143V14.1266H191.053Z" fill="#0E1116"/>
</svg>
